<?xml version="1.0" standalone="no"?>
<!DOCTYPE svg PUBLIC "-//W3C//DTD SVG 20010904//EN"
 "http://www.w3.org/TR/2001/REC-SVG-20010904/DTD/svg10.dtd">
<svg version="1.0" xmlns="http://www.w3.org/2000/svg"
 width="1150.000000pt" height="1150.000000pt" viewBox="0 0 1150.000000 1150.000000"
 preserveAspectRatio="xMidYMid meet">
<metadata>
Created by potrace 1.14, written by Peter Selinger 2001-2017
</metadata>
<g transform="translate(0.000000,1150.000000) scale(0.100000,-0.100000)"
fill="#000000" stroke="none">
<path d="M9119 11496 c-2 -2 -42 -7 -89 -10 -47 -4 -101 -9 -120 -12 -42 -6
-185 -32 -220 -39 -14 -4 -36 -8 -50 -11 -169 -33 -512 -160 -685 -254 -553
-299 -990 -705 -1254 -1164 -50 -87 -75 -137 -126 -257 -34 -79 -100 -275
-109 -322 -2 -15 -7 -30 -9 -34 -3 -5 -8 -30 -11 -57 -4 -27 -9 -52 -11 -56
-4 -7 -13 -68 -29 -199 -8 -64 -12 -186 -10 -310 3 -197 5 -239 19 -341 4 -25
8 -60 11 -79 6 -47 10 -70 34 -186 11 -55 20 -103 20 -107 0 -5 4 -8 8 -8 18
0 60 145 103 355 41 205 102 445 151 595 206 637 602 1170 1098 1480 227 143
557 265 820 306 19 3 41 7 48 9 50 17 345 25 457 13 166 -19 353 -78 493 -155
199 -110 325 -250 382 -423 26 -80 33 -213 15 -296 -30 -141 -136 -329 -286
-509 -111 -132 -204 -220 -389 -368 -89 -72 -426 -297 -525 -351 -16 -9 -37
-21 -45 -26 -194 -127 -811 -426 -1230 -597 -74 -30 -151 -62 -170 -70 -66
-28 -200 -81 -430 -168 -69 -26 -139 -53 -157 -61 -17 -8 -34 -14 -37 -14 -4
0 -95 -34 -204 -76 -108 -42 -201 -77 -207 -78 -5 -2 -19 -7 -30 -11 -11 -5
-134 -52 -274 -107 -225 -87 -361 -141 -456 -183 -16 -7 -102 -45 -190 -83
-257 -112 -715 -333 -880 -425 -44 -24 -102 -57 -130 -72 -206 -114 -421 -245
-620 -378 -104 -70 -347 -242 -379 -268 -6 -5 -29 -23 -51 -40 -281 -213 -559
-467 -745 -678 -36 -41 -70 -79 -75 -85 -98 -107 -249 -336 -327 -496 -41 -84
-62 -136 -113 -272 -22 -56 -63 -223 -79 -320 -39 -226 -39 -486 0 -712 8 -50
17 -103 20 -118 2 -14 20 -82 39 -150 91 -314 245 -614 464 -903 42 -55 78
-102 82 -105 3 -3 34 -39 69 -80 89 -105 308 -321 415 -410 50 -41 92 -77 95
-81 29 -32 336 -246 463 -323 l78 -47 82 64 c135 106 304 279 432 442 96 124
217 307 208 315 -4 4 -45 15 -90 24 -303 60 -577 206 -837 446 -220 203 -396
418 -520 638 -106 188 -202 458 -230 647 -3 22 -8 60 -12 85 -18 123 -8 360
20 510 24 123 80 288 140 410 187 378 454 642 1071 1055 314 210 598 369 930
520 94 42 195 88 225 102 114 52 474 208 725 314 143 61 274 116 290 124 17 7
134 56 260 108 594 245 724 299 1070 444 204 85 384 161 400 168 17 8 59 25
95 40 36 14 74 30 85 35 11 5 72 30 135 56 63 25 129 52 145 59 17 7 82 34
145 60 63 25 129 52 145 60 17 7 100 43 185 80 169 73 198 86 405 184 448 213
634 332 851 544 160 156 287 328 386 522 114 224 191 454 233 700 20 115 25
341 11 440 -12 81 -13 88 -24 135 -63 264 -231 510 -448 657 -172 117 -413
201 -654 229 -59 6 -485 15 -491 10z"/>
<path d="M7210 6552 c0 -7 4 -20 9 -30 5 -9 26 -60 47 -112 20 -52 68 -169
106 -260 81 -191 104 -250 159 -415 22 -66 44 -129 49 -140 4 -11 20 -64 35
-118 83 -306 129 -555 154 -847 9 -96 7 -584 -2 -630 -3 -14 -9 -52 -12 -85
-4 -33 -9 -73 -11 -90 -3 -25 -13 -82 -38 -215 -84 -458 -331 -913 -642 -1183
-119 -104 -126 -110 -221 -173 -230 -154 -551 -279 -798 -310 -16 -2 -37 -6
-45 -9 -89 -26 -463 -26 -665 0 -71 9 -274 52 -283 60 -1 1 15 58 37 126 22
68 65 205 96 304 31 99 63 200 71 225 8 25 14 50 15 55 1 6 7 26 14 45 8 19
30 88 50 152 l37 117 -58 100 c-68 117 -53 112 -219 78 l-110 -23 -27 -69
c-15 -39 -44 -115 -64 -170 -147 -408 -258 -683 -342 -845 -224 -432 -570
-780 -975 -979 -169 -84 -302 -127 -507 -167 -55 -10 -430 -14 -480 -4 -25 5
-83 16 -130 25 -436 84 -834 356 -1088 745 -133 203 -254 534 -288 785 -3 28
-8 52 -9 55 -18 31 -27 526 -12 665 19 178 24 211 59 385 36 184 32 170 53
247 9 35 18 71 20 80 2 10 19 79 38 153 19 74 34 136 33 137 -5 6 -130 -206
-179 -303 -152 -301 -264 -703 -302 -1079 -3 -22 -7 -65 -10 -95 -26 -252 -18
-587 21 -810 8 -47 17 -98 20 -115 3 -16 16 -73 29 -125 153 -594 484 -1091
925 -1384 245 -164 484 -252 795 -292 66 -9 305 -5 385 6 202 28 373 81 575
180 77 38 184 98 238 134 101 68 104 70 149 108 15 13 40 33 55 45 71 56 177
158 376 362 l119 121 41 -5 c23 -3 58 -7 77 -10 19 -2 53 -7 75 -9 22 -3 58
-8 80 -11 22 -2 60 -7 85 -10 70 -8 191 -24 230 -30 14 -2 54 -7 90 -10 36 -3
76 -8 90 -10 181 -26 647 -26 828 1 208 30 232 35 396 78 295 78 581 206 811
364 161 111 353 281 470 417 318 369 537 869 605 1380 6 44 13 91 15 105 25
138 25 633 0 795 -2 17 -12 82 -20 145 -24 168 -63 344 -116 530 -147 509
-427 1112 -694 1497 -105 151 -314 393 -315 365z"/>
<path d="M6063 6366 c-69 -32 -122 -88 -160 -167 -32 -65 -106 -280 -183 -526
l-41 -132 -67 -22 c-37 -13 -71 -24 -77 -25 -5 -2 -190 -64 -410 -139 -377
-128 -809 -275 -1045 -355 l-104 -35 -39 -179 c-21 -98 -36 -180 -34 -182 2
-2 53 5 113 16 60 11 123 23 139 25 17 3 41 8 55 10 165 33 336 60 452 70 140
13 189 14 428 14 135 0 269 0 298 1 29 0 56 -1 61 -4 5 -4 5 -24 -1 -48 -5
-24 -12 -54 -14 -68 -3 -14 -10 -45 -15 -70 -6 -25 -13 -56 -15 -69 -3 -13
-21 -94 -40 -180 -19 -86 -37 -169 -40 -186 -8 -47 -33 -143 -60 -232 -23 -78
-26 -83 -84 -126 -33 -25 -97 -65 -142 -90 -134 -74 -189 -142 -204 -252 l-7
-46 99 5 c54 3 156 9 227 12 l127 6 179 -131 c99 -72 182 -131 185 -131 3 0
13 26 22 57 31 107 16 189 -65 351 -59 117 -75 165 -68 200 4 21 208 549 246
637 5 11 30 75 57 143 26 67 50 122 53 122 3 0 38 -25 76 -56 39 -31 85 -68
104 -82 18 -15 41 -34 51 -42 9 -8 30 -25 46 -37 31 -24 405 -323 439 -351 11
-9 74 -60 140 -112 66 -52 129 -102 140 -112 11 -9 56 -45 100 -79 44 -35 89
-72 100 -82 27 -24 37 -18 51 34 6 24 28 97 47 162 l35 117 -250 323 c-137
177 -256 333 -266 346 -9 13 -22 28 -27 35 -6 6 -26 31 -45 56 -19 25 -38 50
-43 55 -4 6 -53 69 -108 140 -55 72 -106 137 -112 145 -51 63 -219 284 -228
298 -12 19 3 78 72 297 45 146 100 381 100 431 0 90 -69 212 -142 250 -37 19
-45 18 -106 -10z"/>
</g>
</svg>
