<svg width="45" height="45" viewBox="0 0 45 45" fill="none" xmlns="http://www.w3.org/2000/svg">
<path d="M9.14062 38.6719C9.07405 38.6712 9.00786 38.6617 8.94375 38.6437C8.7977 38.6012 8.66941 38.5123 8.57812 38.3906C8.48684 38.2689 8.4375 38.1209 8.4375 37.9688V24.3035H0.703125C0.516645 24.3035 0.337802 24.2294 0.205941 24.0976C0.074079 23.9657 0 23.7869 0 23.6004V7.03125C0 6.84477 0.074079 6.66593 0.205941 6.53407C0.337802 6.4022 0.516645 6.32812 0.703125 6.32812H18.2812C18.4677 6.32812 18.6466 6.4022 18.7784 6.53407C18.9103 6.66593 18.9844 6.84477 18.9844 7.03125V23.5863C18.9844 23.7195 18.9466 23.85 18.8754 23.9625L9.73477 38.3449C9.67133 38.4451 9.5836 38.5276 9.47972 38.5848C9.37584 38.6419 9.25919 38.6719 9.14062 38.6719V38.6719ZM1.40625 22.8832H9.14062C9.32711 22.8832 9.50595 22.9573 9.63781 23.0891C9.76967 23.221 9.84375 23.3998 9.84375 23.5863V35.5395L17.5781 23.3789V7.73438H1.40625V22.8832Z" fill="white"/>
<path d="M35.1562 38.6719C35.0897 38.6712 35.0235 38.6617 34.9594 38.6437C34.8133 38.6012 34.685 38.5123 34.5938 38.3906C34.5025 38.2689 34.4531 38.1209 34.4531 37.9688V24.3035H26.7188C26.5323 24.3035 26.3534 24.2294 26.2216 24.0976C26.0897 23.9657 26.0156 23.7869 26.0156 23.6004V7.03125C26.0156 6.84477 26.0897 6.66593 26.2216 6.53407C26.3534 6.4022 26.5323 6.32812 26.7188 6.32812H44.2969C44.4834 6.32812 44.6622 6.4022 44.7941 6.53407C44.9259 6.66593 45 6.84477 45 7.03125V23.5863C45 23.7195 44.9622 23.85 44.891 23.9625L35.7504 38.3449C35.687 38.4451 35.5992 38.5276 35.4953 38.5848C35.3915 38.6419 35.2748 38.6719 35.1562 38.6719ZM27.4219 22.8832H35.1562C35.3427 22.8832 35.5216 22.9573 35.6534 23.0891C35.7853 23.221 35.8594 23.3998 35.8594 23.5863V35.5395L43.5938 23.3789V7.73438H27.4219V22.8832Z" fill="white"/>
</svg>
